<mxfile host="Electron" agent="Mozilla/5.0 (X11; Linux x86_64) AppleWebKit/537.36 (KHTML, like Gecko) draw.io/27.0.9 Chrome/134.0.6998.205 Electron/35.4.0 Safari/537.36" version="27.0.9">
  <diagram name="Page-1" id="5fgTQaSRWiULj1eeUTge">
    <mxGraphModel dx="1426" dy="777" grid="1" gridSize="10" guides="1" tooltips="1" connect="1" arrows="1" fold="1" page="1" pageScale="1" pageWidth="850" pageHeight="1100" math="0" shadow="0">
      <root>
        <mxCell id="0" />
        <mxCell id="1" parent="0" />
        <mxCell id="AuK5fmxB9djpSmVlIG6D-10" value="start[logged in]" style="edgeStyle=orthogonalEdgeStyle;rounded=0;orthogonalLoop=1;jettySize=auto;html=1;" edge="1" parent="1" source="AuK5fmxB9djpSmVlIG6D-1" target="AuK5fmxB9djpSmVlIG6D-4">
          <mxGeometry relative="1" as="geometry" />
        </mxCell>
        <mxCell id="AuK5fmxB9djpSmVlIG6D-11" value="start[not logged in]" style="edgeStyle=orthogonalEdgeStyle;rounded=0;orthogonalLoop=1;jettySize=auto;html=1;" edge="1" parent="1" source="AuK5fmxB9djpSmVlIG6D-1" target="AuK5fmxB9djpSmVlIG6D-2">
          <mxGeometry relative="1" as="geometry" />
        </mxCell>
        <mxCell id="AuK5fmxB9djpSmVlIG6D-1" value="Start page" style="rounded=1;whiteSpace=wrap;html=1;" vertex="1" parent="1">
          <mxGeometry x="200" y="240" width="120" height="60" as="geometry" />
        </mxCell>
        <mxCell id="AuK5fmxB9djpSmVlIG6D-14" value="register" style="edgeStyle=orthogonalEdgeStyle;rounded=0;orthogonalLoop=1;jettySize=auto;html=1;exitX=0.75;exitY=0;exitDx=0;exitDy=0;entryX=0.75;entryY=1;entryDx=0;entryDy=0;" edge="1" parent="1" source="AuK5fmxB9djpSmVlIG6D-2" target="AuK5fmxB9djpSmVlIG6D-3">
          <mxGeometry relative="1" as="geometry" />
        </mxCell>
        <mxCell id="AuK5fmxB9djpSmVlIG6D-16" value="login[login success]" style="edgeStyle=orthogonalEdgeStyle;rounded=0;orthogonalLoop=1;jettySize=auto;html=1;exitX=0.5;exitY=1;exitDx=0;exitDy=0;entryX=1;entryY=0.5;entryDx=0;entryDy=0;" edge="1" parent="1" source="AuK5fmxB9djpSmVlIG6D-2" target="AuK5fmxB9djpSmVlIG6D-4">
          <mxGeometry x="-0.4872" relative="1" as="geometry">
            <mxPoint as="offset" />
          </mxGeometry>
        </mxCell>
        <mxCell id="AuK5fmxB9djpSmVlIG6D-21" value="back" style="edgeStyle=orthogonalEdgeStyle;rounded=0;orthogonalLoop=1;jettySize=auto;html=1;exitX=0.25;exitY=1;exitDx=0;exitDy=0;entryX=0.75;entryY=1;entryDx=0;entryDy=0;" edge="1" parent="1" source="AuK5fmxB9djpSmVlIG6D-2" target="AuK5fmxB9djpSmVlIG6D-1">
          <mxGeometry relative="1" as="geometry" />
        </mxCell>
        <mxCell id="AuK5fmxB9djpSmVlIG6D-2" value="Login page" style="rounded=1;whiteSpace=wrap;html=1;" vertex="1" parent="1">
          <mxGeometry x="500" y="240" width="120" height="60" as="geometry" />
        </mxCell>
        <mxCell id="AuK5fmxB9djpSmVlIG6D-19" value="back" style="edgeStyle=orthogonalEdgeStyle;rounded=0;orthogonalLoop=1;jettySize=auto;html=1;exitX=0.25;exitY=1;exitDx=0;exitDy=0;entryX=0.25;entryY=0;entryDx=0;entryDy=0;" edge="1" parent="1" source="AuK5fmxB9djpSmVlIG6D-3" target="AuK5fmxB9djpSmVlIG6D-2">
          <mxGeometry relative="1" as="geometry" />
        </mxCell>
        <mxCell id="AuK5fmxB9djpSmVlIG6D-20" value="registe[register success]" style="edgeStyle=orthogonalEdgeStyle;rounded=0;orthogonalLoop=1;jettySize=auto;html=1;exitX=0;exitY=0.5;exitDx=0;exitDy=0;entryX=0;entryY=0.25;entryDx=0;entryDy=0;" edge="1" parent="1" source="AuK5fmxB9djpSmVlIG6D-3" target="AuK5fmxB9djpSmVlIG6D-2">
          <mxGeometry x="-0.1351" y="-30" relative="1" as="geometry">
            <mxPoint as="offset" />
          </mxGeometry>
        </mxCell>
        <mxCell id="AuK5fmxB9djpSmVlIG6D-3" value="Register Page" style="rounded=1;whiteSpace=wrap;html=1;" vertex="1" parent="1">
          <mxGeometry x="500" y="80" width="120" height="60" as="geometry" />
        </mxCell>
        <mxCell id="AuK5fmxB9djpSmVlIG6D-23" value="log out" style="edgeStyle=orthogonalEdgeStyle;rounded=0;orthogonalLoop=1;jettySize=auto;html=1;exitX=0;exitY=0.5;exitDx=0;exitDy=0;entryX=0;entryY=0.5;entryDx=0;entryDy=0;" edge="1" parent="1" source="AuK5fmxB9djpSmVlIG6D-4" target="AuK5fmxB9djpSmVlIG6D-1">
          <mxGeometry relative="1" as="geometry" />
        </mxCell>
        <mxCell id="AuK5fmxB9djpSmVlIG6D-4" value="Landing Page" style="rounded=1;whiteSpace=wrap;html=1;" vertex="1" parent="1">
          <mxGeometry x="200" y="420" width="120" height="60" as="geometry" />
        </mxCell>
        <mxCell id="AuK5fmxB9djpSmVlIG6D-9" value="" style="edgeStyle=orthogonalEdgeStyle;rounded=0;orthogonalLoop=1;jettySize=auto;html=1;" edge="1" parent="1" source="AuK5fmxB9djpSmVlIG6D-7" target="AuK5fmxB9djpSmVlIG6D-1">
          <mxGeometry relative="1" as="geometry" />
        </mxCell>
        <mxCell id="AuK5fmxB9djpSmVlIG6D-7" value="" style="ellipse;whiteSpace=wrap;html=1;aspect=fixed;fillColor=#000000;" vertex="1" parent="1">
          <mxGeometry x="245" y="120" width="30" height="30" as="geometry" />
        </mxCell>
        <mxCell id="AuK5fmxB9djpSmVlIG6D-13" value="log in[login failure]" style="edgeStyle=orthogonalEdgeStyle;rounded=0;orthogonalLoop=1;jettySize=auto;html=1;exitX=1;exitY=0.75;exitDx=0;exitDy=0;entryX=1;entryY=0.25;entryDx=0;entryDy=0;" edge="1" parent="1" source="AuK5fmxB9djpSmVlIG6D-2" target="AuK5fmxB9djpSmVlIG6D-2">
          <mxGeometry relative="1" as="geometry">
            <Array as="points">
              <mxPoint x="670" y="285" />
              <mxPoint x="670" y="255" />
            </Array>
          </mxGeometry>
        </mxCell>
        <mxCell id="AuK5fmxB9djpSmVlIG6D-17" value="register[register failure]" style="edgeStyle=orthogonalEdgeStyle;rounded=0;orthogonalLoop=1;jettySize=auto;html=1;exitX=1;exitY=0.75;exitDx=0;exitDy=0;entryX=1;entryY=0.25;entryDx=0;entryDy=0;" edge="1" parent="1" source="AuK5fmxB9djpSmVlIG6D-3" target="AuK5fmxB9djpSmVlIG6D-3">
          <mxGeometry y="-30" relative="1" as="geometry">
            <Array as="points">
              <mxPoint x="670" y="125" />
              <mxPoint x="670" y="95" />
            </Array>
            <mxPoint as="offset" />
          </mxGeometry>
        </mxCell>
      </root>
    </mxGraphModel>
  </diagram>
</mxfile>
